<?xml version="1.0" encoding="utf-8"?>
<!-- Generator: Adobe Illustrator 25.0.1, SVG Export Plug-In . SVG Version: 6.00 Build 0)  -->
<svg version="1.1" id="Capa_1" xmlns="http://www.w3.org/2000/svg" xmlns:xlink="http://www.w3.org/1999/xlink" x="0" y="0" viewBox="0 0 800 800" xml:space="preserve"><style>.st0{fill:#61dafb}.st1{fill:#f01446}.st2{fill:#ff154a}</style><path class="st0" d="M666.9 419.5c0-32.5-40.8-63.4-103.2-82.5 14.4-63.7 8-114.4-20.2-130.6-6.5-3.8-14.1-5.6-22.4-5.6v22.6s8.3.9 11.4 2.6c13.6 7.8 19.5 37.5 14.9 75.7-1.1 9.4-2.9 19.3-5.1 29.4-19.6-4.8-41-8.5-63.5-10.9-13.5-18.5-27.5-35.3-41.6-50 32.6-30.3 84.9-46.9 84.9-46.9v-22.5c-27.7 0-63.9 19.7-100.5 53.9-36.6-34-72.8-53.5-100.5-53.5v22.2c20.7 0 51.5 16.5 84.1 46.7-14 14.7-28 31.5-41.4 50-22.6 2.4-44.1 6.1-63.7 11-2.3-10-4-19.7-5.2-29-4.7-38.3 1.1-68 14.6-75.9 3-1.8 6.9-2.6 11.5-2.6v-22.3c-8.4 0-16 1.8-22.6 5.6-28.1 16.2-34.5 66.8-19.9 130.3-62.3 19.2-102.9 50-102.9 82.4 0 32.5 40.8 63.4 103.2 82.5-14.4 63.7-8 114.4 20.2 130.6 6.5 3.8 14.1 5.6 22.5 5.6 27.5 0 63.6-19.6 100.1-53.7 36.5 33.8 72.5 53.3 100 53.3 8.4 0 16-1.8 22.6-5.6 28.1-16.2 34.5-66.8 19.9-130.3 62.3-19.2 102.8-50.1 102.8-82.5zm-130.4-66.7c-3.7 12.9-8.3 26.2-13.5 39.5-4.1-8-8.4-16-13.1-24-4.6-8-9.5-15.8-14.4-23.4 14.2 2.1 27.9 4.7 41 7.9zm-45.8 106.5c-7.8 13.5-15.8 26.3-24.1 38.2-14.9 1.3-30 2-45.2 2-15.1 0-30.2-.7-45-1.9-8.3-11.9-16.4-24.6-24.2-38-7.6-13.1-14.5-26.4-20.8-39.8 6.2-13.4 13.2-26.8 20.7-39.9 7.8-13.5 15.8-26.3 24.1-38.2 14.9-1.3 30-2 45.2-2 15.1 0 30.2.7 45 1.9 8.3 11.9 16.4 24.6 24.2 38 7.6 13.1 14.5 26.4 20.8 39.8-6.3 13.4-13.2 26.8-20.7 39.9zm32.3-13c5.4 13.4 10 26.8 13.8 39.8-13.1 3.2-26.9 5.9-41.2 8 4.9-7.7 9.8-15.6 14.4-23.7 4.6-8 8.9-16.1 13-24.1zM421.6 553c-9.3-9.6-18.6-20.3-27.8-32 9 .4 18.2.7 27.5.7 9.4 0 18.7-.2 27.8-.7-9 11.7-18.3 22.4-27.5 32zm-74.4-58.9c-14.2-2.1-27.9-4.7-41-7.9 3.7-12.9 8.3-26.2 13.5-39.5 4.1 8 8.4 16 13.1 24s9.5 15.8 14.4 23.4zM421.1 286c9.3 9.6 18.6 20.3 27.8 32-9-.4-18.2-.7-27.5-.7-9.4 0-18.7.2-27.8.7 9-11.7 18.3-22.4 27.5-32zm-74 58.9c-4.9 7.7-9.8 15.6-14.4 23.7-4.6 8-8.9 16-13 24-5.4-13.4-10-26.8-13.8-39.8 13.1-3.1 26.9-5.8 41.2-7.9zm-90.5 125.2c-35.4-15.1-58.3-34.9-58.3-50.6s22.9-35.6 58.3-50.6c8.6-3.7 18-7 27.7-10.1 5.7 19.6 13.2 40 22.5 60.9-9.2 20.8-16.6 41.1-22.2 60.6-9.9-3.1-19.3-6.5-28-10.2zM310.4 613c-13.6-7.8-19.5-37.5-14.9-75.7 1.1-9.4 2.9-19.3 5.1-29.4 19.6 4.8 41 8.5 63.5 10.9 13.5 18.5 27.5 35.3 41.6 50-32.6 30.3-63.2 46.9-84 46.9-4.5-.1-8.3-1-11.3-2.7zm237.2-76.2c4.7 38.2-1.1 67.9-14.6 75.8-3 1.8-6.9 2.6-11.5 2.6-20.7 0-51.4-16.5-84-46.6 14-14.7 28-31.4 41.3-49.9 22.6-2.4 44-6.1 63.6-11 2.3 10.1 4.1 19.8 5.2 29.1zm38.5-66.7c-8.6 3.7-18 7-27.7 10.1-5.7-19.6-13.2-40-22.5-60.9 9.2-20.8 16.6-41.1 22.2-60.6 9.9 3.1 19.3 6.5 28.1 10.2 35.4 15.1 58.3 34.9 58.3 50.6-.1 15.7-23 35.6-58.4 50.6z"/><circle class="st0" cx="421.3" cy="419.5" r="45.7"/><g><image width="632" height="400" xlink:href="CA4127AD.png" transform="matrix(.6297 0 0 .639 200 73)" overflow="visible"/><path class="st1" d="M517 190S463 68 347 74c0 0-109 9-71 156 0 0-73 21-74 61 0 0 1 4 6 7s68-5 68-5l29-1s18 3 26 7 35 16 35 16l19 10s54 14 68-20l25 3s34 5 64-5 37-21 37-21 33-26 12-66-69-28-69-28l-5 2z"/><path class="st2" d="M561.8 280.5c-19.4 13.1-43.4 16.4-66.4 16.7-8 .1-16-.3-24-1.3-4.1-.5-14.8-.1-17.9-3.4-21.6-22.8-45.2-37.6-67.8-47.2-2.7-1.2-5.4-2.2-8-3.2-36-13.6-67.9-14.5-81.8-14-.9 0-1.8.1-2.5.1-3.2.2-4.9.4-4.9.4s-14-17-8-76 62-65 62-65 48-8 91 21 65 69 65 69l21 49 11 18 1-18-9.5-25.7c20.5-11.7 44.5 5.7 44.5 5.7 8.7 6.1 16.5 14.4 19.4 24.9 5.6 20.3-8.1 38.1-24.1 49z"/><path d="M403.5 193c0 20.3-10.2 38.3-25.8 49-36-13.6-67.9-14.5-81.8-14-7.2-9.8-11.4-21.9-11.4-35 0-32.9 26.6-59.5 59.5-59.5s59.5 26.6 59.5 59.5z" fill="#fff"/><path class="st2" d="M213.4 286c20.9-.9 41.8-1.5 62.6-3.7 4.5-.5 9-1 13.5-1.8 22-4 70.8 19.9 71 20 9.3 4.5 18.2 9.7 27.6 14.1 6.4 3 12.6 3.2 19.6 3.2 5.3 0 10.5-.2 15.6-2 5-1.9 13.5-5 17-9.3 1.8-2.2 2.2-5 2.3-7.8.2-3.6-1.6-4.5-4.3-6.7-5.4-4.4-10.9-8.8-16.5-13-11-8.2-22.6-15.9-34.9-22.1-28.1-14.2-63.3-18.8-94.4-17.4-27.5 1.2-55.4 15.9-73.4 36.7-2.5 3-3.8 6.4-5.7 9.8z"/>
<path class="st1" d="M328 174.6L304 217l-10-6 38-68 9.9 37 23.1-32 7 73-12 1-4-41-19 28z"/></g></svg>